# xmcd
#
# Track frame offsets: 
#        150
#        14732
#        28895
#        57157
#        73275
#        102030
#        129125
#        145662
#        174835
#        185387
#        201515
#        229765
#        251207
#        263425
#
# Disc length: 3775 seconds
#
# Revision: 7
# Processed by: cddbd v1.5.1PL0 Copyright (c) Steve Scherf et al.
# Submitted via: ExactAudioCopy v0.95a5
#
DISCID=c40ebd0e
DTITLE=Cesaria Evora - Cabo Verde
DYEAR=1996
DGENRE=Blues
TTITLE0=Tchintchirote (Carvalho ,Dany)
TTITLE1=Sabine Larga'm (Goncalves ,Gregorio)
TTITLE2=Partida (Fernandes ,Ney)
TTITLE3=Sangue De Beirona (Almeida ,Rufino)
TTITLE4=Apocalipse (De Novas, Manuel)
TTITLE5=Mar E Morada De Sodade (Pina Da ,Armando)
TTITLE6=Bo E Di Meu Cretcheu (Traditional - Arrang. Bau)
TTITLE7=Coragem Irmon (Viera, Toi)
TTITLE8=Quem Bo E (Cavaquim, Frank)
TTITLE9=Regresso (Paris, Tito)
TTITLE10=Zebra (Lobo, Ildo)
TTITLE11=Mae Velha (Da Cruz, Nando)
TTITLE12=Pe Di Boi (Goncalves, Gregorio)
TTITLE13=Ess Pais (De Novas, Manuel)
EXTD=ID3G:   0
EXTT0=
EXTT1=
EXTT2=
EXTT3=
EXTT4=
EXTT5=
EXTT6=
EXTT7=
EXTT8=
EXTT9=
EXTT10=
EXTT11=
EXTT12=
EXTT13=
PLAYORDER=
